<?xml version="1.0" encoding="iso-8859-1"?>
<!-- Uploaded to: SVG Repo, www.svgrepo.com, Generator: SVG Repo Mixer Tools -->
<svg height="800px" width="800px" version="1.1" id="Layer_1" xmlns="http://www.w3.org/2000/svg" xmlns:xlink="http://www.w3.org/1999/xlink" 
	 viewBox="0 0 512 512" xml:space="preserve">
<circle style="fill:#CFF09E;" cx="255.997" cy="255.997" r="167.991"/>
<g>
	<path style="fill:#507C5C;" d="M256,0c-7.664,0-13.877,6.213-13.877,13.877S248.336,27.753,256,27.753
		c57.945,0,110.905,21.716,151.199,57.422l-32.781,32.781C341.468,89.6,299.928,74.132,256,74.132
		c-45.156,0-86.517,16.549-118.35,43.892L95.044,75.42c-0.075-0.075-0.158-0.139-0.235-0.212c-0.071-0.075-0.132-0.154-0.205-0.228
		c-5.417-5.419-14.206-5.419-19.624,0C26.628,123.332,0,187.62,0,256c0,141.159,114.841,256,256,256
		c68.38,0,132.667-26.628,181.02-74.98C485.372,388.668,512,324.38,512,256C512,114.841,397.159,0,256,0z M365.043,147.093
		c5.416,5.423,14.203,5.429,19.624,0.011c0.402-0.402,0.766-0.828,1.109-1.264c0.029-0.029,0.061-0.053,0.09-0.082l40.957-40.957
		c32.834,37.054,53.823,84.82,56.987,137.322h-15.439c-7.664,0-13.877,6.213-13.877,13.877s6.213,13.877,13.877,13.877h15.443
		c-3.047,51.144-22.904,99.082-56.912,137.403l-32.929-32.929c27.344-31.833,43.892-73.193,43.892-118.35
		c0-7.664-6.213-13.877-13.877-13.877s-13.877,6.213-13.877,13.877c0,84.978-69.135,154.115-154.115,154.115
		S101.883,340.979,101.883,256s69.135-154.115,154.115-154.115C297.201,101.885,335.927,117.941,365.043,147.093z M256,453.159
		c-7.664,0-13.877,6.213-13.877,13.877v16.777c-52.502-3.165-100.269-24.154-137.322-56.987l32.849-32.849
		c31.833,27.344,73.193,43.892,118.35,43.892s86.517-16.549,118.35-43.892l32.929,32.929
		c-38.319,34.009-86.259,53.867-137.403,56.912v-16.782C269.877,459.371,263.664,453.159,256,453.159z M28.188,269.877h46.47
		c3.011,39.73,18.85,75.932,43.367,104.473l-32.85,32.849C52.342,370.146,31.353,322.379,28.188,269.877z M85.096,104.72
		l32.929,32.929c-24.517,28.542-40.355,64.743-43.367,104.473H28.182C31.229,190.979,51.087,143.041,85.096,104.72z"/>
	<path style="fill:#507C5C;" d="M298.296,256c10.659-9.389,17.25-23.291,16.726-38.694c-0.909-26.692-23.42-47.586-50.128-47.586
		h-1.07v-2.217c0-2.136-1.732-3.867-3.867-3.867h-17.243c-2.136,0-3.867,1.732-3.867,3.867v2.217h-33.99
		c-4.367,0-7.907,3.54-7.907,7.907v66.059v24.626v66.059c0,4.367,3.54,7.907,7.907,7.907h33.99v2.217
		c0,2.136,1.732,3.867,3.867,3.867h17.243c2.136,0,3.867-1.732,3.867-3.867v-2.217h1.07c26.708,0,49.219-20.894,50.128-47.586
		C315.546,279.291,308.955,265.389,298.296,256z M265.755,194.698c13.409,0,24.318,10.908,24.318,24.318
		s-10.908,24.318-24.318,24.318h-1.932v-48.636h1.932V194.698z M221.927,194.698h16.918v48.636h-16.918V194.698z M221.927,317.302
		v-48.636h16.918v48.636H221.927z M265.755,317.302h-1.932v-48.636h1.932c13.409,0,24.318,10.908,24.318,24.318
		C290.073,306.392,279.164,317.302,265.755,317.302z"/>
</g>
</svg>